<svg width="1200" height="760" viewBox="0 0 1200 760" fill="none" xmlns="http://www.w3.org/2000/svg">
  <rect width="1200" height="760" rx="28" fill="#0F141B"/>
  <rect x="28" y="28" width="1144" height="704" rx="24" fill="#121922" stroke="#283244"/>
  <text x="72" y="88" fill="#AAB7C8" font-family="Arial, Helvetica, sans-serif" font-size="14" font-weight="700" letter-spacing="0.14em">README AUDIT / FIRST TOKEN</text>
  <text x="72" y="146" fill="#F5F1E8" font-family="Arial, Helvetica, sans-serif" font-size="38" font-weight="700">First-token latency by prompt length</text>
  <text x="72" y="190" fill="#AAB7C8" font-family="Arial, Helvetica, sans-serif" font-size="20">Longer context dominated the initial wait in the archived Modal run.</text>
  <rect x="936" y="62" width="196" height="34" rx="17" fill="#1A2331"/>
  <text x="1034" y="84" text-anchor="middle" fill="#AAB7C8" font-family="Arial, Helvetica, sans-serif" font-size="13" font-weight="700">README / archived run</text>

  <rect x="60" y="228" width="1080" height="420" rx="22" fill="#121922" stroke="#283244"/>
  <path d="M310.0 248V602" stroke="#2A3443" stroke-dasharray="4 10"/>
  <text x="310.0" y="626" text-anchor="middle" fill="#415067" font-family="Arial, Helvetica, sans-serif" font-size="13">0</text>
  <path d="M466.0 248V602" stroke="#2A3443" stroke-dasharray="4 10"/>
  <text x="466.0" y="626" text-anchor="middle" fill="#415067" font-family="Arial, Helvetica, sans-serif" font-size="13">26</text>
  <path d="M622.0 248V602" stroke="#2A3443" stroke-dasharray="4 10"/>
  <text x="622.0" y="626" text-anchor="middle" fill="#415067" font-family="Arial, Helvetica, sans-serif" font-size="13">52</text>
  <path d="M778.0 248V602" stroke="#2A3443" stroke-dasharray="4 10"/>
  <text x="778.0" y="626" text-anchor="middle" fill="#415067" font-family="Arial, Helvetica, sans-serif" font-size="13">78</text>
  <path d="M934.0 248V602" stroke="#2A3443" stroke-dasharray="4 10"/>
  <text x="934.0" y="626" text-anchor="middle" fill="#415067" font-family="Arial, Helvetica, sans-serif" font-size="13">104</text>
  <path d="M1090.0 248V602" stroke="#2A3443" stroke-dasharray="4 10"/>
  <text x="1090.0" y="626" text-anchor="middle" fill="#415067" font-family="Arial, Helvetica, sans-serif" font-size="13">130</text>
  <path d="M310 602H1090" stroke="#415067"/>
  <text x="92" y="272" fill="#F5F1E8" font-family="Arial, Helvetica, sans-serif" font-size="24" font-weight="700">Prompt 8</text>
  <text x="92" y="300" fill="#AAB7C8" font-family="Arial, Helvetica, sans-serif" font-size="16">Seconds to first generated token</text>
  <rect x="310" y="258" width="47.4" height="52" rx="18" fill="#4A86D8"/>
  <text x="373.4" y="292" fill="#F5F1E8" font-family="Arial, Helvetica, sans-serif" font-size="24" font-weight="700">7.9 s</text>
  <text x="92" y="380" fill="#F5F1E8" font-family="Arial, Helvetica, sans-serif" font-size="24" font-weight="700">Prompt 128</text>
  <text x="92" y="408" fill="#AAB7C8" font-family="Arial, Helvetica, sans-serif" font-size="16">Seconds to first generated token</text>
  <rect x="310" y="366" width="759.7" height="52" rx="18" fill="#EAB97A"/>
  <text x="1085.7" y="400" fill="#F5F1E8" font-family="Arial, Helvetica, sans-serif" font-size="24" font-weight="700">126.6 s</text>
  <rect x="60" y="664" width="1080" height="50" rx="18" fill="#151D29" stroke="#283244"/>
  <text x="84" y="695" fill="#AAB7C8" font-family="Arial, Helvetica, sans-serif" font-size="17">The archived run jumps from 7.9 s to 126.6 s before the first output token.</text>
</svg>